HIERARCHY
ROOT hip
{
  OFFSET 3.75568 81.3305 -46.5886
  CHANNELS 6 Xposition Yposition Zposition Zrotation Xrotation Yrotation
  JOINT abdomen
  {
    OFFSET 0 20.6881 -0.73152
    CHANNELS 3 Zrotation Xrotation Yrotation
    JOINT chest
    {
      OFFSET 0 11.7043 -0.48768
      CHANNELS 3 Zrotation Xrotation Yrotation
      JOINT neck
      {
        OFFSET 0 22.1894 -2.19456
        CHANNELS 3 Zrotation Xrotation Yrotation
        JOINT head
        {
          OFFSET -0.24384 7.07133 1.2192
          CHANNELS 3 Zrotation Xrotation Yrotation
          JOINT leftEye
          {
            OFFSET 4.14528 8.04674 8.04672
            CHANNELS 3 Zrotation Xrotation Yrotation
            End Site
            {
              OFFSET 1 0 0
            }
          }
          JOINT rightEye
          {
            OFFSET -3.6576 8.04674 8.04672
            CHANNELS 3 Zrotation Xrotation Yrotation
            End Site
            {
              OFFSET 1 0 0
            }
          }
        }
      }
      JOINT rCollar
      {
        OFFSET -2.68224 19.2634 -4.8768
        CHANNELS 3 Zrotation Xrotation Yrotation
        JOINT rShldr
        {
          OFFSET -8.77824 -1.95073 1.46304
          CHANNELS 3 Zrotation Xrotation Yrotation
          JOINT rForeArm
          {
            OFFSET -28.1742 -1.7115 0.48768
            CHANNELS 3 Zrotation Xrotation Yrotation
            JOINT rHand
            {
              OFFSET -22.5879 0.773209 7.07136
              CHANNELS 3 Zrotation Xrotation Yrotation
              JOINT rThumb1
              {
                OFFSET -1.2192 -0.487915 3.41376
                CHANNELS 3 Zrotation Xrotation Yrotation
                JOINT rThumb2
                {
                  OFFSET -3.37035 -0.52449 3.41376
                  CHANNELS 3 Zrotation Xrotation Yrotation
                  End Site
                  {
                    OFFSET -1.78271 -1.18214 1.43049
                  }
                }
              }
              JOINT rIndex1
              {
                OFFSET -7.75947 0.938293 5.60832
                CHANNELS 3 Zrotation Xrotation Yrotation
                JOINT rIndex2
                {
                  OFFSET -2.54057 -0.884171 1.56538
                  CHANNELS 3 Zrotation Xrotation Yrotation
                  End Site
                  {
                    OFFSET -1.62519 -0.234802 1.16502
                  }
                }
              }
              JOINT rMid1
              {
                OFFSET -8.24714 1.18213 3.41376
                CHANNELS 3 Zrotation Xrotation Yrotation
                JOINT rMid2
                {
                  OFFSET -3.10165 -0.590103 1.0647
                  CHANNELS 3 Zrotation Xrotation Yrotation
                  End Site
                  {
                    OFFSET -2.48547 -0.328903 0.83742
                  }
                }
              }
              JOINT rRing1
              {
                OFFSET -8.82822 0.546677 1.51678
                CHANNELS 3 Zrotation Xrotation Yrotation
                JOINT rRing2
                {
                  OFFSET -2.60934 -0.819778 -0.0198488
                  CHANNELS 3 Zrotation Xrotation Yrotation
                  End Site
                  {
                    OFFSET -2.33842 -0.294052 0.168128
                  }
                }
              }
              JOINT rPinky1
              {
                OFFSET -8.27202 -0.0477905 -0.4584
                CHANNELS 3 Zrotation Xrotation Yrotation
                JOINT rPinky2
                {
                  OFFSET -1.82734 -0.647385 -0.700984
                  CHANNELS 3 Zrotation Xrotation Yrotation
                  End Site
                  {
                    OFFSET -1.69225 -0.51767 -0.607171
                  }
                }
              }
            }
          }
        }
      }
      JOINT lCollar
      {
        OFFSET 2.68224 19.2634 -4.8768
        CHANNELS 3 Zrotation Xrotation Yrotation
        JOINT lShldr
        {
          OFFSET 8.77824 -1.95073 1.46304
          CHANNELS 3 Zrotation Xrotation Yrotation
          JOINT lForeArm
          {
            OFFSET 28.1742 -1.7115 0.48768
            CHANNELS 3 Zrotation Xrotation Yrotation
            JOINT lHand
            {
              OFFSET 22.5879 0.773209 7.07136
              CHANNELS 3 Zrotation Xrotation Yrotation
              JOINT lThumb1
              {
                OFFSET 1.2192 -0.487915 3.41376
                CHANNELS 3 Zrotation Xrotation Yrotation
                JOINT lThumb2
                {
                  OFFSET 3.37035 -0.52449 3.41376
                  CHANNELS 3 Zrotation Xrotation Yrotation
                  End Site
                  {
                    OFFSET 1.78271 -1.18214 1.43049
                  }
                }
              }
              JOINT lIndex1
              {
                OFFSET 7.75947 0.938293 5.60832
                CHANNELS 3 Zrotation Xrotation Yrotation
                JOINT lIndex2
                {
                  OFFSET 2.54057 -0.884171 1.56538
                  CHANNELS 3 Zrotation Xrotation Yrotation
                  End Site
                  {
                    OFFSET 1.62519 -0.234802 1.16502
                  }
                }
              }
              JOINT lMid1
              {
                OFFSET 8.24714 1.18213 3.41376
                CHANNELS 3 Zrotation Xrotation Yrotation
                JOINT lMid2
                {
                  OFFSET 3.10165 -0.590103 1.0647
                  CHANNELS 3 Zrotation Xrotation Yrotation
                  End Site
                  {
                    OFFSET 2.48547 -0.328903 0.83742
                  }
                }
              }
              JOINT lRing1
              {
                OFFSET 8.82822 0.546677 1.51678
                CHANNELS 3 Zrotation Xrotation Yrotation
                JOINT lRing2
                {
                  OFFSET 2.60934 -0.819778 -0.0198488
                  CHANNELS 3 Zrotation Xrotation Yrotation
                  End Site
                  {
                    OFFSET 2.33842 -0.294052 0.168128
                  }
                }
              }
              JOINT lPinky1
              {
                OFFSET 8.27202 -0.0477905 -0.4584
                CHANNELS 3 Zrotation Xrotation Yrotation
                JOINT lPinky2
                {
                  OFFSET 1.82734 -0.647385 -0.700984
                  CHANNELS 3 Zrotation Xrotation Yrotation
                  End Site
                  {
                    OFFSET 1.69225 -0.51767 -0.607171
                  }
                }
              }
            }
          }
        }
      }
    }
  }
  JOINT rButtock
  {
    OFFSET -8.77824 4.35084 1.2192
    CHANNELS 3 Zrotation Xrotation Yrotation
    JOINT rThigh
    {
      OFFSET 0 -1.70687 -2.19456
      CHANNELS 3 Zrotation Xrotation Yrotation
      JOINT rShin
      {
        OFFSET 0 -36.8199 0.73152
        CHANNELS 3 Zrotation Xrotation Yrotation
        JOINT rFoot
        {
          OFFSET 0.73152 -45.1104 -5.12064
          CHANNELS 3 Zrotation Xrotation Yrotation
          End Site
          {
            OFFSET -1.1221 -3.69964 12.103
          }
        }
      }
    }
  }
  JOINT lButtock
  {
    OFFSET 8.77824 4.35084 1.2192
    CHANNELS 3 Zrotation Xrotation Yrotation
    JOINT lThigh
    {
      OFFSET 0 -1.70687 -2.19456
      CHANNELS 3 Zrotation Xrotation Yrotation
      JOINT lShin
      {
        OFFSET 0 -36.8199 0.73152
        CHANNELS 3 Zrotation Xrotation Yrotation
        JOINT lFoot
        {
          OFFSET -0.73152 -45.1104 -5.12064
          CHANNELS 3 Zrotation Xrotation Yrotation
          End Site
          {
            OFFSET 1.1221 -3.69964 12.103
          }
        }
      }
    }
  }
}
MOTION
Frames:	4
Frame Time:	0.00833333
12.3043 71.6826 -25.7337 6.34272 41.9923 -2.07439 -2.26744 57.7068 20.3687 2.04189 -1.87656 4.79173 -4.1632 4.0727 -9.42421 -13.3577 -22.1926 -21.04 -0 0 0 -0 0 0 1.95357e-013 4.01649e-013 -3.69529e-013 29.5122 -29.4444 67.3205 -11.0461 -4.80148 19.7791 -0.00209486 1.98137 0.278438 3.01771e-009 -1.50171e-009 -6.27387e-010 5.20636e-009 -2.58377e-009 -1.09126e-009 3.01772e-009 -1.50171e-009 -6.2739e-010 7.73091 5.47488 0.417314 3.01771e-009 -1.50171e-009 -6.27386e-010 2.90554 0.965183 0.102902 3.01771e-009 -1.50171e-009 -6.27391e-010 10.2786 0.731801 0.0259123 3.01771e-009 -1.50171e-009 -6.27389e-010 2.22167 -0.733487 -0.20892 1.95264e-013 4.01665e-013 -3.69784e-013 7.91318 47.9078 -74.0931 28.0938 -31.2057 -69.1802 0.81512 24.748 -3.71444 -2.22602e-009 5.34973e-010 -6.89144e-010 -3.85328e-009 9.20361e-010 -1.14692e-009 -2.22602e-009 5.34974e-010 -6.89143e-010 -7.73091 5.47488 -0.417314 -2.22602e-009 5.34963e-010 -6.8915e-010 -2.90554 0.965183 -0.102902 -2.22602e-009 5.34974e-010 -6.8915e-010 -10.2786 0.731801 -0.0259123 -2.22601e-009 5.34973e-010 -6.8916e-010 -2.22167 -0.733487 0.20892 -2.03217e-016 0 -3.88251e-019 -75.0776 -67.2473 -82.4424 -1.21303 62.2589 1.69405 0.17231 -13.6667 0.117085 2.03217e-016 0 3.88251e-019 93.3158 -86.6277 104.654 0.585719 50.4204 -1.04849 -1.43573 0.781549 -20.8593 
12.5376 72.0536 -24.4056 8.00078 40.569 -7.03743 -10.0391 59.3608 27.7367 1.84751 -1.91728 5.37019 -4.11867 4.21985 -9.52893 -13.5047 -22.568 -21.3771 -0 0 0 -0 0 0 2.72409e-013 6.19805e-013 -2.15389e-013 30.5145 -30.417 67.9536 -10.9745 -4.7547 19.6427 -0.00797905 3.13409 0.440682 3.71419e-009 -1.17849e-009 -2.40536e-009 6.3997e-009 -2.01608e-009 -4.169e-009 3.7142e-009 -1.17848e-009 -2.40537e-009 7.73091 5.47488 0.417314 3.71419e-009 -1.17849e-009 -2.40535e-009 2.90554 0.965183 0.102902 3.71419e-009 -1.17849e-009 -2.40536e-009 10.2786 0.731801 0.0259123 3.71419e-009 -1.17849e-009 -2.40536e-009 2.22167 -0.733487 -0.20892 2.72276e-013 6.19816e-013 -2.15644e-013 7.95177 48 -74.0039 28.1218 -31.3972 -69.4867 0.829819 24.9527 -3.74945 -4.06141e-009 -4.49173e-010 2.93186e-010 -7.00655e-009 -7.86151e-010 5.80523e-010 -4.06141e-009 -4.49171e-010 2.93185e-010 -7.73091 5.47488 -0.417314 -4.06141e-009 -4.49179e-010 2.93179e-010 -2.90554 0.965183 -0.102902 -4.06142e-009 -4.49172e-010 2.93179e-010 -10.2786 0.731801 -0.0259123 -4.06141e-009 -4.49173e-010 2.9317e-010 -2.22167 -0.733487 0.20892 -2.03217e-016 0 -3.88251e-019 -67.0541 -68.8938 -73.5335 -1.09735 60.4904 1.52371 0.711441 -13.4991 1.83886 2.03217e-016 0 3.88251e-019 68.4171 -83.4772 80.0905 0.60286 50.9857 -1.08111 -1.93395 -1.07066 -19.1845 
12.7472 72.3107 -23.1577 9.31913 38.9476 -11.7777 -18.5906 60.4763 35.7035 1.65407 -1.96217 5.94319 -4.06401 4.36423 -9.62067 -13.6603 -22.9358 -21.6911 -0 0 0 -0 0 0 3.22626e-013 7.91844e-013 -4.03867e-014 31.5671 -31.3206 68.6273 -10.9119 -4.71423 19.5234 -0.0199724 4.29439 0.604513 3.97117e-009 -6.72361e-010 -3.97852e-009 6.83467e-009 -1.13367e-009 -6.89187e-009 3.97118e-009 -6.72358e-010 -3.97853e-009 7.73091 5.47488 0.417314 3.97117e-009 -6.72364e-010 -3.97851e-009 2.90554 0.965183 0.102902 3.97117e-009 -6.72363e-010 -3.97852e-009 10.2786 0.731801 0.0259123 3.97117e-009 -6.72363e-010 -3.97851e-009 2.22167 -0.733487 -0.20892 3.2245e-013 7.91848e-013 -4.06375e-014 7.99651 48.0942 -73.902 28.147 -31.5757 -69.771 0.845394 25.1665 -3.78615 -5.45938e-009 -1.39653e-009 1.23055e-009 -9.40536e-009 -2.42829e-009 2.22219e-009 -5.45939e-009 -1.39653e-009 1.23055e-009 -7.73091 5.47488 -0.417314 -5.45938e-009 -1.39653e-009 1.23054e-009 -2.90554 0.965183 -0.102902 -5.45939e-009 -1.39653e-009 1.23054e-009 -10.2786 0.731801 -0.0259123 -5.45938e-009 -1.39653e-009 1.23053e-009 -2.22167 -0.733487 0.20892 -2.03217e-016 0 -3.88251e-019 -57.7445 -69.9134 -63.2143 -1.00102 58.7053 1.37126 1.23679 -13.3237 3.54788 2.03217e-016 0 3.88251e-019 60.0501 -79.9144 72.1598 0.620526 51.5376 -1.11385 -2.32139 -2.9575 -17.5246 
12.9456 72.5734 -21.7859 10.0467 37.8616 -14.8976 -24.7838 60.9306 41.4481 1.52012 -1.98054 6.34037 -4.01116 4.50339 -9.69753 -13.7963 -23.3159 -21.9731 -0 0 0 -0 0 0 3.19755e-013 8.66701e-013 6.7885e-014 32.3816 -32.1147 69.2164 -10.8485 -4.6733 19.4028 -0.0332768 5.19986 0.732825 3.94209e-009 -3.03145e-010 -4.74654e-009 6.78017e-009 -4.92022e-010 -8.22102e-009 3.94209e-009 -3.03142e-010 -4.74655e-009 7.73091 5.47488 0.417314 3.94209e-009 -3.0315e-010 -4.74653e-009 2.90554 0.965183 0.102902 3.94209e-009 -3.03148e-010 -4.74654e-009 10.2786 0.731801 0.0259123 3.94208e-009 -3.03148e-010 -4.74654e-009 2.22167 -0.733487 -0.20892 3.19557e-013 8.66701e-013 6.76365e-014 8.05801 48.1697 -73.8021 28.1698 -31.7448 -70.0429 0.860248 25.3679 -3.82087 -5.90248e-009 -1.82784e-009 1.63546e-009 -1.01643e-008 -3.17547e-009 2.92789e-009 -5.90249e-009 -1.82784e-009 1.63546e-009 -7.73091 5.47488 -0.417314 -5.90248e-009 -1.82784e-009 1.63545e-009 -2.90554 0.965183 -0.102902 -5.90249e-009 -1.82784e-009 1.63545e-009 -10.2786 0.731801 -0.0259123 -5.90248e-009 -1.82784e-009 1.63545e-009 -2.22167 -0.733487 0.20892 -2.03217e-016 0 -3.88251e-019 -51.1808 -70.1953 -55.9201 -0.9432 57.4491 1.275 1.59087 -13.1897 4.72046 2.03217e-016 0 3.88251e-019 57.5168 -77.4708 70.0833 0.637193 52.0096 -1.13966 -2.54473 -4.29306 -16.4653 
